# xmcd
#
# Track frame offsets: 
#        150
#        30978
#        68127
#        98984
#        134297
#        165564
#        201744
#        232729
#
# Disc length: 3568 seconds
#
# Revision: 2
# Processed by: cddbd v1.5.2PL0 Copyright (c) Steve Scherf et al.
# Submitted via: ExactAudioCopy v1.1
#
DISCID=650dee08
DTITLE=Astrid Lindgren - Manfred Steffen - Wolfgang Amadeus Mozart - Wien
DTITLE=er Philharmoniker - Michels schˆnste Streiche
DYEAR=2013
DGENRE=Hˆrbuch
TTITLE0=Montag, der 26. Dezember [Das groﬂe Aufr‰umen von Katthult]
TTITLE1=Es dauert eine ganze Zeit [Das groﬂe Aufr‰umen von Katthult]
TTITLE2=Michel und Ida gingen nach Hause [Das groﬂe Aufr‰umen von Katt
TTITLE2=hult]
TTITLE3=Die Maduskan jedoch [Das groﬂe Aufr‰umen von Katthult]
TTITLE4=Michel r¸ttelte an der T¸r [Das groﬂe Aufr‰umen von Katthult]
TTITLE5=Da saﬂen sie nun [Das groﬂe Aufr‰umen von Katthult]
TTITLE6=Aus einem der Betten [Das groﬂe Aufr‰umen von Katthult]
TTITLE7=Jetzt, da Michel von seinem Gewehr sprach [Das groﬂe Aufr‰umen
TTITLE7=von Katthult]
EXTD=
EXTT0=
EXTT1=
EXTT2=
EXTT3=
EXTT4=
EXTT5=
EXTT6=
EXTT7=
PLAYORDER=
